<?xml version="1.0" encoding="UTF-8" standalone="no"?>
<!DOCTYPE svg PUBLIC "-//W3C//DTD SVG 1.1//EN" "http://www.w3.org/Graphics/SVG/1.1/DTD/svg11.dtd">
<svg width="100%" height="100%" viewBox="0 0 200 200" version="1.1" xmlns="http://www.w3.org/2000/svg" xmlns:xlink="http://www.w3.org/1999/xlink" xml:space="preserve" xmlns:serif="http://www.serif.com/" style="fill-rule:evenodd;clip-rule:evenodd;stroke-linejoin:round;stroke-miterlimit:2;">
    <g>
        <g transform="matrix(1.149425,0,0,1.149425,-14.942529,-14.942529)">
            <circle cx="100" cy="100" r="58" style="fill:rgb(38,21,21);"/>
        </g>
        <g transform="matrix(1.149425,0,0,1.149425,-14.942529,-14.942529)">
            <path d="M39.123,103.904C38.267,104.59 37.181,105 36,105L18,105C15.24,105 13,102.76 13,100C13,97.24 15.24,95 18,95L36,95C37.181,95 38.267,95.41 39.123,96.096C40.003,82.194 45.548,69.551 54.209,59.716C53.113,59.598 52.049,59.12 51.21,58.281L38.482,45.553C36.53,43.601 36.53,40.433 38.482,38.482C40.433,36.53 43.601,36.53 45.553,38.482L58.281,51.21C59.12,52.049 59.598,53.113 59.716,54.209C69.551,45.548 82.194,40.003 96.096,39.123C95.41,38.267 95,37.181 95,36L95,18C95,15.24 97.24,13 100,13C102.76,13 105,15.24 105,18L105,36C105,37.181 104.59,38.267 103.904,39.123C117.806,40.003 130.449,45.548 140.284,54.209C140.402,53.113 140.88,52.049 141.719,51.21L154.447,38.482C156.399,36.53 159.567,36.53 161.518,38.482C163.47,40.433 163.47,43.601 161.518,45.553L148.79,58.281C147.951,59.12 146.887,59.598 145.791,59.716C154.452,69.551 159.997,82.194 160.877,96.096C161.733,95.41 162.819,95 164,95L182,95C184.76,95 187,97.24 187,100C187,102.76 184.76,105 182,105L164,105C162.819,105 161.733,104.59 160.877,103.904C159.997,117.806 154.452,130.449 145.791,140.284C146.887,140.402 147.951,140.88 148.79,141.719L161.518,154.447C163.47,156.399 163.47,159.567 161.518,161.518C159.567,163.47 156.399,163.47 154.447,161.518L141.719,148.79C140.88,147.951 140.402,146.887 140.284,145.791C130.449,154.452 117.806,159.997 103.904,160.877C104.59,161.733 105,162.819 105,164L105,182C105,184.76 102.76,187 100,187C97.24,187 95,184.76 95,182L95,164C95,162.819 95.41,161.733 96.096,160.877C82.194,159.997 69.551,154.452 59.716,145.791C59.598,146.887 59.12,147.951 58.281,148.79L45.553,161.518C43.601,163.47 40.433,163.47 38.482,161.518C36.53,159.567 36.53,156.399 38.482,154.447L51.21,141.719C52.049,140.88 53.113,140.402 54.209,140.284C45.548,130.449 40.003,117.806 39.123,103.904ZM100,45C69.645,45 45,69.645 45,100C45,130.355 69.645,155 100,155C130.355,155 155,130.355 155,100C155,69.645 130.355,45 100,45Z" style="fill:rgb(112,32,208);"/>
        </g>
        <g transform="matrix(1.149425,0,0,1.149425,-14.942529,-14.942529)">
            <circle cx="100" cy="100" r="34" style="fill:rgb(255,0,42);fill-opacity:0.3;"/>
        </g>
        <g transform="matrix(1.149425,0,0,1.149425,-14.942529,-14.942529)">
            <circle cx="100" cy="100" r="20" style="fill:rgb(255,138,0);"/>
        </g>
        <g transform="matrix(1.149425,0,0,1.149425,-14.942529,-14.942529)">
            <path d="M68.679,121.353C68.889,122.201 69,123.088 69,124C69,130.071 64.071,135 58,135C51.929,135 47,130.071 47,124C47,117.929 51.929,113 58,113C60.996,113 63.714,114.2 65.698,116.146L97,98.259L97,62.585C92.385,61.278 89,57.031 89,52C89,45.929 93.929,41 100,41C106.071,41 111,45.929 111,52C111,57.031 107.615,61.278 103,62.585L103,98.259L134.302,116.146C136.286,114.2 139.004,113 142,113C148.071,113 153,117.929 153,124C153,130.071 148.071,135 142,135C135.929,135 131,130.071 131,124C131,123.088 131.111,122.201 131.321,121.353L100,103.455L68.679,121.353Z" style="fill:rgb(46,204,113);"/>
        </g>
    </g>
</svg>
